/* XPM */
static char * absolute_xpm[] = {
"45 18 5 1",
" 	c None",
".	c #B38A48",
"+	c #7D644E",
"@	c #FFFFFF",
"#	c #C8A972",
"                                             ",
"                         ....                ",
"               ++++++++++....+               ",
"               +@@@@@@@@+....+               ",
"               ++++++@@@+....+               ",
"               ++++++@@@+....+               ",
"               +@@@@@@@@+....+               ",
"               +@++++@@@+....+               ",
"               +@++++@@@+....+               ",
"               +@++++@@@+....+               ",
"               +@@@@@@@@+....+               ",
"               +++++++++++++++               ",
"              ##########+@@@@+               ",
"              ##########+@@@@+               ",
"              ##########+@@@@+               ",
"              ##########+@@@@+               ",
"               +++++++++++++++               ",
"                                             "};
