/* XPM */
static char * academix_xpm[] = {
"45 18 15 1",
" 	c None",
".	c #255F8A",
"+	c #FFFFFF",
"@	c #DF391E",
"#	c #26608A",
"$	c #FFAB32",
"%	c #27608B",
"&	c #FEFDFA",
"*	c #FFFCF9",
"=	c #DF3B20",
"-	c #FEFFFF",
";	c #FFFEFE",
">	c #FFFEFD",
",	c #FFFEFC",
"'	c #FDF4F3",
"                                             ",
"                   ..++@@                    ",
"                 ....++@@@@                  ",
"                .....++@@@@@                 ",
"               ....#.++@@@@@@                ",
"               .....+$$+@@@@@                ",
"              ......+$$+@@@@@@               ",
"              ....%.&$$*@=@@@@               ",
"              .....+$$$$+@@@@@               ",
"              .....+$$$$+@@@@@               ",
"              ....-++++++;@@@@               ",
"              ....++++++++@@@@               ",
"               ..+>$$$$$$,'@@                ",
"               ..+$$$$$$$$+@@                ",
"                .+$$$$$$$$+@                 ",
"                 +$$$$$$$$+                  ",
"                   $$$$$$                    ",
"                                             "};
