/* XPM */
static char * aix_xpm[] = {
"45 18 8 1",
" 	c None",
".	c #95E000",
"+	c #FFFFFF",
"@	c #EBF9CF",
"#	c #FAFEF4",
"$	c #9AE10B",
"%	c #9AE10C",
"&	c #9EE315",
"                                             ",
"                   ......                    ",
"                 ..+@##++..                  ",
"                ..+..$$..+..                 ",
"               ..+........+..                ",
"               .+..........+.                ",
"              .+.+++.+.+..+.+.               ",
"              .+.+++.+..++..+.               ",
"              .+.+.+.+..++..+.               ",
"              .+.+++.+..++..+.               ",
"              .+.+.+.+..++..+.               ",
"              .+.+.+.+.+..+.+.               ",
"               .+..........+.                ",
"               ..+........+..                ",
"                ..+..%%..+..                 ",
"                 .&++++++..                  ",
"                   ......                    ",
"                                             "};
