/* XPM */
static char * alpine_xpm[] = {
"45 18 5 1",
" 	c None",
".	c #0D597F",
"+	c #0D5980",
"@	c #FFFFFF",
"#	c #FEFEFE",
"                                             ",
"                                             ",
"                  ........                   ",
"                 ..........                  ",
"                +...........                 ",
"                ............                 ",
"               .....@........                ",
"               ....@@@.......                ",
"              ....@@.#@.@.....               ",
"              ...@@...@@.@....               ",
"               .@@.....@@.@..                ",
"               ..............                ",
"                ............                 ",
"                +...........                 ",
"                 ..........                  ",
"                  ........                   ",
"                                             ",
"                                             "};
