/* XPM */
static char * android_xpm[] = {
"45 18 6 1",
" 	c None",
".	c #2E9551",
"+	c #30DD81",
"@	c #D0F7E2",
"#	c #CEF7E1",
"$	c #CDF7E1",
"                                             ",
"          ...                  ...           ",
"          ...                  ...           ",
"          .....  ++++++++++  .....           ",
"          .....  ++++++++++  .....           ",
"           ....++++++++++++++...             ",
"             ++++++++++++++++++              ",
"             ++++++++++++++++++              ",
"           +++++++++++++++++++++             ",
"           +++++++++++++++++++++             ",
"          ++++@##$++++++++$@@#++++           ",
"          ++++@##$++++++++$@@#++++           ",
"          ++++#$$$++++++++$##$++++           ",
"        ++++++$$$$++++++++$$$$++++++         ",
"        ++++++++++++++++++++++++++++         ",
"        ++++++++++++++++++++++++++++         ",
"        ++++++++++++++++++++++++++++         ",
"                                             "};
