/* XPM */
static char * antergos_xpm[] = {
"45 18 10 1",
" 	c None",
".	c #315080",
"+	c #335181",
"@	c #335281",
"#	c #FFFFFF",
"$	c #304E7D",
"%	c #36537E",
"&	c #304E7C",
"*	c #FDFDFD",
"=	c #304F7F",
"                                             ",
"                    ...+                     ",
"                   ......                    ",
"                  .......+                   ",
"                 ....@.....                  ",
"                ....##.##...                 ",
"               ...####.#.#...                ",
"               ..####$##.##..                ",
"              ...###..##.%#..                ",
"              ...##...##..#...               ",
"              ...#&...##..#...               ",
"              .......###..#...               ",
"              ......####......               ",
"              .....*###.......               ",
"              ................               ",
"               ..............                ",
"                 =.........                  ",
"                                             "};
