/* XPM */
static char * antix_xpm[] = {
"45 18 11 1",
" 	c None",
".	c #E4E4E4",
"+	c #ACAEB5",
"@	c #E3E3E3",
"#	c #ADAFB6",
"$	c #AEB0B6",
"%	c #E2E3E3",
"&	c #E2E2E3",
"*	c #AFB0B7",
"=	c #E0E1E1",
"-	c #AFB1B7",
"                                             ",
"                ....++++++                   ",
"               ...@...#++++                  ",
"                ++++...++$.%..               ",
"               ++++++&..+.....               ",
"               +++++++&@...++                ",
"              +++++++++...*+++               ",
"              +++++++++...++++               ",
"              ++++++++.....+++               ",
"              +++++++...+=.+++               ",
"              ++++++@..*+...++               ",
"              +++++..&.++.&.++               ",
"               +++....++++.@-                ",
"               ++....+++++..+                ",
"                ....++++++...                ",
"               ....++++++++..                ",
"              .... ++++++  ..                ",
"                                             "};
