/* XPM */
static char * ArchBang_xpm[] = {
"45 18 3 1",
" 	c None",
".	c #1793D1",
"+	c #F3F9FD",
"                                             ",
"                     ..                      ",
"                     ..                      ",
"                    ....                     ",
"                    .++.                     ",
"                   ..++..                    ",
"                   ..++..                    ",
"                  ...++...                   ",
"                  ...++...                   ",
"                 ....++....                  ",
"                 ..........                  ",
"                .....++.....                 ",
"                .....++.....                 ",
"               ..............                ",
"               .....    .....                ",
"              .....       ....               ",
"              ..            ..               ",
"                                             "};
