/* XPM */
static char * ArchLabs_xpm[] = {
"45 18 6 1",
" 	c None",
".	c #606060",
"+	c #F6F6F6",
"@	c #FBFBFB",
"#	c #FFFFFF",
"$	c #F5F5F5",
"                                             ",
"                     ..                      ",
"                     ..                      ",
"                    ....                     ",
"                    ....                     ",
"                   ......                    ",
"                   ..+...                    ",
"                  ..+@+...                   ",
"                  ..+##+..                   ",
"                 ...$##+...                  ",
"                 ...++++...                  ",
"                ....+..+....                 ",
"                ....+..+....                 ",
"               ..............                ",
"               .....    .....                ",
"              .....       ....               ",
"              ..            ..               ",
"                                             "};
