/* XPM */
static char * Arch_xpm[] = {
"45 18 7 1",
" 	c None",
".	c #1793D1",
"+	c #1C96D2",
"@	c #1994D1",
"#	c #1B95D2",
"$	c #1F97D3",
"%	c #1D96D2",
"                                             ",
"                     ..                      ",
"                     ..                      ",
"                    ....                     ",
"                    ....                     ",
"                    ....                     ",
"                   ......                    ",
"                   ......                    ",
"                  +......@                   ",
"                 ..........                  ",
"                 #...  ....                  ",
"                 ...    ...                  ",
"                ....    ...$                 ",
"               .....    ....                 ",
"               %...      ....                ",
"              ...          ...               ",
"              ..            ..               ",
"                                             "};
