/* XPM */
static char * ArchMan_xpm[] = {
"45 18 3 1",
" 	c None",
".	c #AF0500",
"+	c #F1F1F1",
"                                             ",
"                     ..                      ",
"                     ..                      ",
"                    ....                     ",
"                    ....                     ",
"                   ......                    ",
"                   ......                    ",
"                  ........                   ",
"                  ...++...                   ",
"                 ...++++...                  ",
"                 .++++++++.                  ",
"                ...++++++...                 ",
"                ....++++....                 ",
"               ....++++++....                ",
"               ....++  ++....                ",
"              .....       ....               ",
"              ..            ..               ",
"                                             "};
