/* XPM */
static char * Arco_xpm[] = {
"45 18 4 1",
" 	c None",
".	c #6790EB",
"+	c #6790EC",
"@	c #6691EC",
"                                             ",
"                                             ",
"                     ..                      ",
"                     ..                      ",
"                    ....                     ",
"                    .....                    ",
"                   ......                    ",
"                   .......                   ",
"                  ...  ...                   ",
"                 ....  ....                  ",
"                 ...    ...                  ",
"                ....    ....                 ",
"                ...    .....                 ",
"               ...+  ........                ",
"               ...       ....                ",
"              ...         @...               ",
"                                             ",
"                                             "};
