/* XPM */
static char * Artix_xpm[] = {
"45 18 2 1",
" 	c None",
".	c #3BB2D4",
"                                             ",
"                     ..                      ",
"                     ..                      ",
"                    ....                     ",
"                   .....                     ",
"                    .....                    ",
"                     ....                    ",
"                       ...                   ",
"                  ..    ..                   ",
"                 .....                       ",
"                 .......                     ",
"                ........   .                 ",
"                ......    ...                ",
"               .....     ....                ",
"              ....      ......               ",
"              ..            ..               ",
"                                             ",
"                                             "};
