/* XPM */
static char * Arya_xpm[] = {
"45 18 4 1",
" 	c None",
".	c #4F4F4F",
"+	c #16AE16",
"@	c #FF8416",
"                                             ",
"               ..............                ",
"              ................               ",
"              ......++.@@.....               ",
"              ......++.@@.....               ",
"              ......++.@@.....               ",
"              ......++.@@.....               ",
"              ....+.++.@@.....               ",
"              ....+.++.@@.....               ",
"              ...++.++.@@.....               ",
"              ...++.++.@@.....               ",
"              ..+++.++.@@.....               ",
"              ..+++.++.@@.....               ",
"              .+++..++.@@@@@@.               ",
"              .+++..++.@@@@@@.               ",
"              ................               ",
"               ..............                ",
"                                             "};
