/* XPM */
static char * Awesome_xpm[] = {
"45 18 3 1",
" 	c None",
".	c #525C6B",
"+	c #FFFFFF",
"                                             ",
"               ..............                ",
"              ..++++++++++++..               ",
"              ..++++++++++++..               ",
"              ..++++++++++++..               ",
"              ..++++++++++++..               ",
"              ...........+++..               ",
"              ..++++++++++++..               ",
"              ..++++++++++++..               ",
"              ..++++++++++++..               ",
"              ..++++++++++++..               ",
"              ..+++......+++..               ",
"              ..++++++++.+++..               ",
"              ..++++++++.+++..               ",
"              ..++++++++.+++..               ",
"              ................               ",
"               ..............                ",
"                                             "};
