/* XPM */
static char * BackBox_xpm[] = {
"45 18 3 1",
" 	c None",
".	c #E4E4E4",
"+	c #489AD4",
"                                             ",
"                  ............               ",
"                 .............               ",
"                ...+++++++++..               ",
"               ...++++++++++..               ",
"              ...+++++++++++..               ",
"              ..++++++++++++..               ",
"              ..++++++++++++..               ",
"              ..++++++++++++..               ",
"              ..++++++++++++..               ",
"              ..++++++++++++..               ",
"              ..++++++++++++..               ",
"              ..+++++++++++...               ",
"              ..++++++++++...                ",
"              ..+++++++++...                 ",
"              .............                  ",
"              ............                   ",
"                                             "};
