/* XPM */
static char * BlackArch_xpm[] = {
"45 18 5 1",
" 	c None",
".	c #2F2F2F",
"+	c #1793D1",
"@	c #4F4F4F",
"#	c #7F949F",
"                                             ",
"                     ..                      ",
"                     ..                      ",
"                    +..+                     ",
"                    +..+                     ",
"                   +@##@+                    ",
"                   +@##@+                    ",
"                  +@@##@@+                   ",
"                  +@@##@@+                   ",
"                 +@@@##@@@+                  ",
"                 +@@@##@@@+                  ",
"                +@@@@##@@@@+                 ",
"                +@@@@##@@@@+                 ",
"               +@@@@+##+@@@@+                ",
"               +@@@+ ## ++@@+                ",
"              +@+++  #    ++@+               ",
"              ++            ++               ",
"                                             "};
