/* XPM */
static char * Bodhi_xpm[] = {
"45 18 12 1",
" 	c None",
".	c #FF6600",
"+	c #5A860B",
"@	c #FE6900",
"#	c #FF6A07",
"$	c #FFF8F3",
"%	c #F1F5EA",
"&	c #FFFFFF",
"*	c #FE6800",
"=	c #5C870E",
"-	c #5B860C",
";	c #FF6A06",
"                                             ",
"                   ......                    ",
"              +  ........@.                  ",
"               +.........#..                 ",
"               .+$$$$%$$&....                ",
"               *$++++++$$$.#.                ",
"              ..$=+++++++$$...               ",
"              ..$+++++++++$$..               ",
"              ..$++++++++++$..               ",
"              ..$++++++++++$..               ",
"              ..$$+++++++-$$..               ",
"              ...$++++++++$$..               ",
"               @#$$+++++++$..                ",
"               ...$$+++$&$+..                ",
"                ..;$$$$$$;.+                 ",
"                 ........@. +                ",
"                   ......    +               ",
"                                             "};
