/* XPM */
static char * BusenLabs_xpm[] = {
"45 18 5 1",
" 	c None",
".	c #4F4F4F",
"+	c #FBB620",
"@	c #52514E",
"#	c #F7B421",
"                                             ",
"                   ......                    ",
"                 ..........                  ",
"                ......+.....                 ",
"               ......++......                ",
"               ....@++++.....                ",
"              .....++++++.....               ",
"              .....++++++.....               ",
"              .....++++++.....               ",
"              .....+#.+++.....               ",
"              .....+...++.....               ",
"              .....+...++.....               ",
"               ........+.....                ",
"               ........+.....                ",
"                ......++....                 ",
"                 .....+....                  ",
"                   ......                    ",
"                                             "};
