/* XPM */
static char * Calculate_xpm[] = {
"45 18 7 1",
" 	c None",
".	c #3D3D3D",
"+	c #FFFFFF",
"@	c #FF7F1C",
"#	c #EAAE3D",
"$	c #FD7E1C",
"%	c #F77B1B",
"                                             ",
"                .++.@@@@@@@@                 ",
"               ..+..#@@@@@@@@                ",
"              .....####@@@@@@@               ",
"              .....####@@@@@@@               ",
"              ......@@@@@@@@@@               ",
"              .....@@@@@@@@@@@               ",
"              .....@@@@@@@@@@@               ",
"              .....@@@@@@@@@@@               ",
"              +++++....@@@@@@@               ",
"              +++++.......$@@@               ",
"              ++++++++++.....@               ",
"              +++++++++++++...               ",
"              ++++++++%@@@@@@.               ",
"              +++++++@@@@@@@@                ",
"               ++++++@@@@@@@@                ",
"                ++++@@@@@@@                  ",
"                                             "};
