/* XPM */
static char * CentOS_xpm[] = {
"45 18 15 1",
" 	c None",
".	c #D59532",
"+	c #EFA738",
"@	c #F2A734",
"#	c #9ACE3D",
"$	c #932178",
"%	c #791A62",
"&	c #221F5B",
"*	c #922077",
"=	c #2C2874",
"-	c #2B277C",
";	c #2A2579",
">	c #2B2774",
",	c #F2A638",
"'	c #87B535",
"                                             ",
"                     ..                      ",
"                    .+@.                     ",
"                ### #++$ $$$                 ",
"                #####++$$$$$                 ",
"                #####++$$$$$                 ",
"                 ####++$$$$                  ",
"               %#####++$$$$$&                ",
"              %*******+=====-&               ",
"              %******#======;&               ",
"               %>>>>>##,,,,,&                ",
"                 >>>>##,,,,                  ",
"                >>>>>##,,,,,                 ",
"                >>>>>##,,,,,                 ",
"                >>> >##, ,,,                 ",
"                    '##'                     ",
"                     ''                      ",
"                                             "};
