/* XPM */
static char * chakra_xpm[] = {
"45 18 10 1",
" 	c None",
".	c #0079C1",
"+	c #067CC2",
"@	c #047BC2",
"#	c #FFFFFF",
"$	c #017AC1",
"%	c #EFF5F9",
"&	c #F0F6F9",
"*	c #F6F9FB",
"=	c #0076BC",
"                                             ",
"                   .....+                    ",
"                 @........@                  ",
"                ......###...                 ",
"               ..####..##....                ",
"               .$###...##....                ",
"              ........#%#....+               ",
"              ....##....#.....               ",
"              ...##.......#...               ",
"              ...##.....####..               ",
"              ..###....####...               ",
"              ..##&.##........               ",
"               ..#..###......                ",
"               .....*###.....                ",
"                ......#.....                 ",
"                 ..........                  ",
"                   .....=                    ",
"                                             "};
