/* XPM */
static char * cinnamon_xpm[] = {
"45 18 3 1",
" 	c None",
".	c #DC682E",
"+	c #FFFFFF",
"                                             ",
"                   ......                    ",
"                 ..........                  ",
"                ............                 ",
"               ..............                ",
"               ..............                ",
"              ................               ",
"              ......++........               ",
"              .....+++.++.....               ",
"              ....+++.++++....               ",
"              ...+++.++++++...               ",
"              ..++++++++++++..               ",
"               ++++++++++++++                ",
"               ++++++++++++++                ",
"                ++++++++++++                 ",
"                 ++++++++++                  ",
"                   ++++++                    ",
"                                             "};
