/* XPM */
static char * Condres_xpm[] = {
"45 18 10 1",
" 	c None",
".	c #AEEA66",
"+	c #B2EB6D",
"@	c #B1EB6C",
"#	c #F8D057",
"$	c #FFFFFF",
"%	c #3195D2",
"&	c #AEEA67",
"*	c #B5EC73",
"=	c #B4EB71",
"                                             ",
"                ............                 ",
"               +............@                ",
"              #$............$%               ",
"              #$$..........$$%               ",
"              ##$&........&$%%               ",
"              ##$$........$$%%               ",
"              ###$*......=$%%%               ",
"              ###$$......$$%%%               ",
"              ####$......$%%%%               ",
"              ####$$....$$%%%%               ",
"              #####$....$%%%%%               ",
"              #####$$..$$%%%%%               ",
"              ######$..$%%%%%%               ",
"              ######$$$$%%%%%%               ",
"               ######$$%%%%%%                ",
"                #####$$%%%%%                 ",
"                                             "};
