/* XPM */
static char * linux2_xpm[] = {
"45 18 3 1",
" 	c None",
".	c #FFFFFF",
"+	c #F9548F",
"                                             ",
"                    ......                   ",
"                  ..........                 ",
"                 ............                ",
"                .....++++.....               ",
"                ....+....++...               ",
"               ....+......+....              ",
"               ....+..+...+....              ",
"               ....+..+...+....              ",
"               ....+..+..+.....              ",
"               ....+...++......              ",
"               ....++..........              ",
"                ....+.........               ",
"                .....++.......               ",
"                 ............                ",
"                  ..........                 ",
"                    ......                   ",
"                                             "};
