/* XPM */
static char * linux_xpm[] = {
"45 18 8 1",
" 	c None",
".	c #F9548F",
"+	c #F95690",
"@	c #F9558F",
"#	c #FFFFFF",
"$	c #F7538E",
"%	c #F1518B",
"&	c #F8548E",
"                                             ",
"                    ...+..                   ",
"                  ........@.                 ",
"                 ............                ",
"                .....####.....               ",
"                ....#....##...               ",
"               ....#......#....              ",
"               ....#..#.$.#....              ",
"               ....#..#...#....              ",
"               ....#..#..#.....              ",
"               ....#..%##......              ",
"               ....##..........              ",
"                ....#.........               ",
"                .....##.......               ",
"                 ......&.....                ",
"                  ..........                 ",
"                    ......                   ",
"                                             "};
