/* XPM */
static char * Deepin_xpm[] = {
"45 18 11 1",
" 	c None",
".	c #33C5FF",
"+	c #34C5FF",
"@	c #FFFFFF",
"#	c #3BC7FF",
"$	c #39C7FF",
"%	c #3EC8FF",
"&	c #38C6FF",
"*	c #35C5FF",
"=	c #33C4FE",
"-	c #37C6FF",
"                                             ",
"                   ......                    ",
"                 ..........                  ",
"                ...+...@@#..                 ",
"               ..$@%..@@@@...                ",
"               .&@@..@@......                ",
"              ..@@@$.@...@@...               ",
"              ..@@@......@@@..               ",
"              ..@@@...@...@@..               ",
"              ..@@@@..@@..@@..               ",
"              ...@@@...@..@@..               ",
"              ....@@@@@..@@...               ",
"               ......*..@@@$=                ",
"               .......@@@@...                ",
"                ..+@@@@@.-..                 ",
"                 ..........                  ",
"                   ......                    ",
"                                             "};
