/* XPM */
static char * Devuan_xpm[] = {
"45 18 3 1",
" 	c None",
".	c #6A6578",
"+	c #FFFFFF",
"                                             ",
"                   ......                    ",
"                 ..........                  ",
"                ............                 ",
"               ...+++++......                ",
"               .......++++...                ",
"              ...........+++..               ",
"              ............++..               ",
"              ............++..               ",
"              ...........+++..               ",
"              ........+++++...               ",
"              ....+++++++.....               ",
"               ..+++++++.....                ",
"               ..++++........                ",
"                ............                 ",
"                 ..........                  ",
"                   ......                    ",
"                                             "};
