/* XPM */
static char * DragonFlyBSD_xpm[] = {
"45 18 8 1",
" 	c None",
".	c #A3CC41",
"+	c #F5F5F4",
"@	c #FFE546",
"#	c #EBA53E",
"$	c #EBA63E",
"%	c #E04848",
"&	c #C52F2F",
"                                             ",
"                   ......                    ",
"                  ........                   ",
"              ++ ....@@.... ++               ",
"               ++...@#$@...++                ",
"               ++++.@%%@.++++                ",
"               ..++++%%++++..                ",
"               .....++++.....                ",
"               ....++%%+++...                ",
"               +++++.%%..+++++               ",
"              ++++...&&...+++                ",
"                .....&&.....                 ",
"                 ....&&....                  ",
"                  ...&&...                   ",
"                   ..&&..                    ",
"                     &&                      ",
"                     &&                      ",
"                                             "};
