/* XPM */
static char * linux_xpm[] = {
"45 18 4 1",
" 	c None",
".	c #E0E0E0",
"+	c #DFDFDF",
"@	c #DEDEDE",
"                                             ",
"                                             ",
"                     .+.                     ",
"                    +++++.                   ",
"                 @++++++++                   ",
"                  +++++++@                   ",
"                  +++++++                    ",
"                   .+++++                    ",
"                    ++++                     ",
"                   +++++++++++               ",
"                  ++++++++++++               ",
"                 +++++++++++++               ",
"                 +++++++++++++               ",
"                 .+++++++++++                ",
"                  +++++++++++                ",
"                  .+++++++++                 ",
"                    @+++++                   ",
"                                             "};
