/* XPM */
static char * Elementary_inverted_xpm[] = {
"45 18 2 1",
" 	c None",
".	c #FFFFFF",
"                                             ",
"                 ..........                  ",
"                ..   ..   ..                 ",
"               ..   ....   ..                ",
"              ..   ......   ..               ",
"              .   ...  ..    .               ",
"              .  ...   ..    .               ",
"              .  ..   ...   ..               ",
"              .  ..   ..    ..               ",
"              .  ..  ...   ...               ",
"              .  .. ...   ....               ",
"              .  ....    ... .               ",
"              . .....   ...  .               ",
"              .... .......  ..               ",
"               ..   ....   ..                ",
"                ..        ..                 ",
"                 ..........                  ",
"                                             "};
