/* XPM */
static char * Endeavour_xpm[] = {
"45 18 8 1",
" 	c None",
".	c #7F3FBF",
"+	c #7F64E4",
"@	c #FD7E80",
"#	c #7F7FFF",
"$	c #FF7F7F",
"%	c #FC7D80",
"&	c #F57B84",
"                                             ",
"                                             ",
"                       .                     ",
"                      ..+                    ",
"                     @...#                   ",
"                    $$....#                  ",
"                   $$.....#                  ",
"                  $%.......#                 ",
"                  $........##                ",
"                 $$.........#                ",
"                $$..........##               ",
"               $$...........##               ",
"              $$&...........##               ",
"                ##.........##                ",
"               #############                 ",
"                                             ",
"                                             ",
"                                             "};
