/* XPM */
static char * Fedora_xpm[] = {
"45 18 8 1",
" 	c None",
".	c #324E89",
"+	c #34508A",
"@	c #344F8A",
"#	c #FFFFFF",
"$	c #5B71A1",
"%	c #FAFAFC",
"&	c #FEFFFF",
"                                             ",
"                    ......+..                ",
"                   @..........               ",
"                  .....#####$..              ",
"                 .....######$$..             ",
"                ......##.....$$.             ",
"                ......##.....$$+             ",
"                ......##....$$$.             ",
"                ..$$##%####$$$..             ",
"                .$$$#######$$...             ",
"                $$$...##........             ",
"                $$....##.......              ",
"                $$....##.......              ",
"                $$....##.......              ",
"                .$$#####......               ",
"                ..$###&......                ",
"                 ..........                  ",
"                                             "};
