/* XPM */
static char * FreeNAS_xpm[] = {
"45 18 10 1",
" 	c None",
".	c #282323",
"+	c #FFFFFF",
"@	c #FDFDFD",
"#	c #2B2626",
"$	c #FEFEFE",
"%	c #F6F6F6",
"&	c #FCFCFC",
"*	c #2A2525",
"=	c #F8F8F8",
"                                             ",
"                   ......                    ",
"                 ..........                  ",
"               .............                 ",
"               .+++....+++...                ",
"              ..+++@++++++....               ",
"              ...++++++++.....               ",
"              .#+++++++.......               ",
"              .+++++++++......               ",
"              .+++++++$.%...+.               ",
"              .++++++++..%++..               ",
"              ..++++++....+...               ",
"               .+&++++++.++...               ",
"               ..+&++++++++..                ",
"                .*++$++=++..                 ",
"                 ...+++....                  ",
"                   ......                    ",
"                                             "};
