/* XPM */
static char * linux_xpm[] = {
"45 18 10 1",
" 	c None",
".	c #B5010F",
"+	c #B60210",
"@	c #B5000E",
"#	c #B6010F",
"$	c #B50110",
"%	c #B4010F",
"&	c #B50210",
"*	c #B6020F",
"=	c #B5020F",
"                                             ",
"              ..+          @..               ",
"              ....  #...  ....               ",
"               .$ $....$ ....@               ",
"               . ....... ...%                ",
"                ........ ...                 ",
"               ..........                    ",
"               ............$.                ",
"               ..............                ",
"               ..............                ",
"               ..............                ",
"               ..............                ",
"               ..............                ",
"                ............                 ",
"                &..........+                 ",
"                  ........                   ",
"                   *.%%.=                    ",
"                                             "};
