/* XPM */
static char * funtoo_xpm[] = {
"45 18 3 1",
" 	c None",
".	c #FFFFFF",
"+	c #9A0DE9",
"                                             ",
"  .........................................  ",
" ..............................+++.......... ",
" ....++++++....................+++.......... ",
" ...+++++++....................+++..+++.+++. ",
" ...+++.....+++++++++++++++++++++++++.+++.+. ",
" .+++++++.+++++++++++++++++++++++++++.+++.+. ",
" .+++++++.++..+++..+.......++..+++..+++.+++. ",
" ...+++...++..+++..+.......++..+++.......... ",
" ...+++..+++..+++..+..+++..++..+++.......... ",
" ...+++..+++..+++..+..+++..++..+++.......... ",
" ...+++..+++..+++..+..+++..++..+++.......... ",
" ...+++..+++..+++..+..+++..++..+++.......... ",
" ...+++..+++.......+..+++..++..+++.......... ",
" ...+++..+++.......+..+++..++..+++.......... ",
" ...+++..++++++++++++++++++++..+++.......... ",
" ........................................... ",
"  .........................................  "};
