/* XPM */
static char * gentoo_xpm[] = {
"45 18 3 1",
" 	c None",
".	c #FFFFFF",
"+	c #9991D9",
"                                             ",
"                   ....                      ",
"                 ..++++..                    ",
"                .++++++++.                   ",
"                .++++...++..                 ",
"               .++++.++.++++.                ",
"                .++++...++++.                ",
"                 ..++++++++++.               ",
"                   .++++++++.                ",
"                  .+++++++++.                ",
"                 .++++++++..                 ",
"                .++++++++..                  ",
"               .++++++++.                    ",
"               .++++++..                     ",
"               .++++..                       ",
"                ....                         ",
"                                             ",
"                                             "};
