/* XPM */
static char * ghostbsd_xpm[] = {
"45 18 9 1",
" 	c None",
".	c #4D4D5B",
"+	c #4B4E5D",
"@	c #069EB2",
"#	c #4B505E",
"$	c #485261",
"%	c #4C4F5D",
"&	c #079DB1",
"*	c #089CB0",
"                                             ",
"                   ......                    ",
"                 ..........                  ",
"                ......+@@@@.                 ",
"               ......@@@..@..                ",
"               .....@@.#$@@..                ",
"              .....@@...@@%...               ",
"              ....@@...@@@....               ",
"              ...@@...@@@#....               ",
"              ...@@..@@@......               ",
"              ...@@@@@&@......               ",
"              ...@@@@@*@......               ",
"               .....@@@......                ",
"               ....@*@.......                ",
"                ..@@@.......                 ",
"                 .@@.......                  ",
"                   ......                    ",
"                                             "};
