/* XPM */
static char * gnome_xpm[] = {
"45 18 3 1",
" 	c None",
".	c #569C3B",
"+	c #FFFFFF",
"                                             ",
"                     .......                 ",
"                    .........                ",
"                  ....+..++..                ",
"                ....+.+.+++..                ",
"               .....+.+.++...                ",
"               ..++.........                 ",
"               ..+..+++++..                  ",
"                ...++++++..                  ",
"                ..+++++++..                  ",
"                ..+++++....                  ",
"                ..++++.....                  ",
"                ..+++..++..                  ",
"                 ..++..++..                  ",
"                 ...++++..                   ",
"                  ........                   ",
"                    ....                     ",
"                                             "};
