/* XPM */
static char * haiku_xpm[] = {
"45 18 5 1",
" 	c None",
".	c #DADADA",
"+	c #1A1A1A",
"@	c #35892E",
"#	c #F6F6F6",
"                                             ",
"              ......    ......               ",
"              .++++.    .++++.               ",
"              .++++.    .++++.               ",
"              .++++.    .++++.               ",
"              .++++.    .++++.               ",
"              .++++.    .@@@+.               ",
"              #+@@@@   @@@@@@.               ",
"              .#@@@@@@@@@@@@@@               ",
"              .@##@@@@@@@#@@@@               ",
"              .@@@#######@@@@@               ",
"              .+@@@@@@@@@@@@@.               ",
"              .+@@@@@@@@@@@@+.               ",
"              .+++@@@@@@@@+++.               ",
"              .++++.    .++++.               ",
"              .++++.    .++++.               ",
"              ......    ......               ",
"                                             "};
