/* XPM */
static char * i3_xpm[] = {
"45 18 7 1",
" 	c None",
".	c #F94732",
"+	c #FFFFFF",
"@	c #F94C38",
"#	c #F94934",
"$	c #F74632",
"%	c #F64631",
"                                             ",
"                   ......                    ",
"                 ...++.....                  ",
"                ....++......                 ",
"               ..++....++....                ",
"               ..++....+++...                ",
"              @.........+++..#               ",
"              .++...++...+++..               ",
"              .++...+++...++..               ",
"              .......+++...++.               ",
"              ...++$..+++..++.               ",
"              %..+++.......++.               ",
"              ....+++.....++..               ",
"               ....+++++++++.                ",
"               .....+++++++..                ",
"                ............                 ",
"                   ......                    ",
"                                             "};
