/* XPM */
static char * linux_xpm[] = {
"45 18 154 2",
"  	c None",
". 	c #4C576B",
"+ 	c #465267",
"@ 	c #455065",
"# 	c #434F64",
"$ 	c #445065",
"% 	c #414D62",
"& 	c #3E4A60",
"* 	c #3F4B61",
"= 	c #4B566B",
"- 	c #334057",
"; 	c #BFC3CA",
"> 	c #475265",
", 	c #757D8D",
"' 	c #FFFFFF",
") 	c #CACDD2",
"! 	c #344056",
"~ 	c #354259",
"{ 	c #404C62",
"] 	c #38445B",
"^ 	c #E1E2E5",
"/ 	c #8B919C",
"( 	c #3E4A5F",
"_ 	c #8E96A2",
": 	c #FBFBFB",
"< 	c #596374",
"[ 	c #3C485E",
"} 	c #F0F1F2",
"| 	c #DDDEE1",
"1 	c #39455A",
"2 	c #3A465B",
"3 	c #A6ACB5",
"4 	c #A7ACB4",
"5 	c #333F56",
"6 	c #596376",
"7 	c #323F56",
"8 	c #38455A",
"9 	c #344158",
"0 	c #8E95A1",
"a 	c #3A455A",
"b 	c #515C70",
"c 	c #C1C4CA",
"d 	c #E8E9EB",
"e 	c #FEFEFE",
"f 	c #6C7483",
"g 	c #ECEDEF",
"h 	c #838995",
"i 	c #354258",
"j 	c #37445A",
"k 	c #B3B7C0",
"l 	c #BEC1C7",
"m 	c #596274",
"n 	c #BFC3C9",
"o 	c #CCCED3",
"p 	c #364258",
"q 	c #485368",
"r 	c #D5D7DB",
"s 	c #EDEEF0",
"t 	c #434E62",
"u 	c #A5AAB4",
"v 	c #F8F9F9",
"w 	c #555F70",
"x 	c #344157",
"y 	c #3D495F",
"z 	c #C4C7CD",
"A 	c #BBBFC5",
"B 	c #667081",
"C 	c #404B5F",
"D 	c #BEC1C8",
"E 	c #C5C7CC",
"F 	c #334056",
"G 	c #555F73",
"H 	c #3C485C",
"I 	c #475367",
"J 	c #D6D8DC",
"K 	c #505A6B",
"L 	c #354158",
"M 	c #D5D8DC",
"N 	c #4C5668",
"O 	c #989EA8",
"P 	c #878D98",
"Q 	c #CACDD3",
"R 	c #B7BBC1",
"S 	c #E5E7E9",
"T 	c #ABAFB7",
"U 	c #7F8796",
"V 	c #F5F5F6",
"W 	c #F6F6F7",
"X 	c #586171",
"Y 	c #838A97",
"Z 	c #F4F5F6",
"` 	c #535C6D",
" .	c #798190",
"..	c #FAFAFB",
"+.	c #FCFDFD",
"@.	c #AAAEB6",
"#.	c #D8DADE",
"$.	c #7F8592",
"%.	c #646D7E",
"&.	c #F1F2F3",
"*.	c #F1F1F3",
"=.	c #F9F9FA",
"-.	c #434E61",
";.	c #E2E4E7",
">.	c #A4A9B1",
",.	c #6B7381",
"'.	c #687182",
").	c #CCCFD3",
"!.	c #BDC1C7",
"~.	c #848B97",
"{.	c #707785",
"].	c #B9BDC4",
"^.	c #F7F8F8",
"/.	c #545D6E",
"(.	c #767E8E",
"_.	c #B5B8BF",
":.	c #626B7B",
"<.	c #364358",
"[.	c #B5B9C1",
"}.	c #9CA2AA",
"|.	c #949AA6",
"1.	c #6C7381",
"2.	c #828994",
"3.	c #535E71",
"4.	c #6B7382",
"5.	c #979DA8",
"6.	c #485365",
"7.	c #9399A5",
"8.	c #DBDDE0",
"9.	c #3A455B",
"0.	c #6C7485",
"a.	c #9299A3",
"b.	c #818995",
"c.	c #F3F4F5",
"d.	c #DFE1E3",
"e.	c #404B60",
"f.	c #ACB1B9",
"g.	c #717986",
"h.	c #6E7788",
"i.	c #9CA1AB",
"j.	c #323F55",
"k.	c #6E7887",
"l.	c #A5AAB2",
"m.	c #B1B5BD",
"n.	c #636C7B",
"o.	c #A2A8B2",
"p.	c #68707F",
"q.	c #8A919D",
"r.	c #525D71",
"s.	c #5D6778",
"t.	c #424D62",
"u.	c #5C6578",
"v.	c #38445A",
"w.	c #2E3A4F",
"                                                                                          ",
"      . + + + + @ # # # # # # # # # # # # # # $ % % % % % % % % % % % % % % % & & * %     ",
"    = - - - - - - - - - - - - - - - - - - - - ; > - - - - - - - - - - - - - - - - - - *   ",
"    # - - - - - - - - - - - - - - - - - - - , ' ) ! - - - - - - - - - - - - - - - - - ~   ",
"    { - - - - - - - - - - - - - - - - - - ] ^ ' ' / - - - - - - - - - - - - - - - - - -   ",
"    ( - - - - - - - - - - - - - - - - - - _ ' ' ' : < - - - - - - - - - - - - - - - - -   ",
"    [ - - - - - - - - - - - - - - - - - % } ' ' ' ' | 1 - - - - - - - - - - - - - - - -   ",
"    2 - - - - - - - - - - - - - - - - - 3 ' ' ' ' ' ' 4 5 - - - - - - 6 7 - - - - - - -   ",
"    8 - - - - - - - 9 0 a - - - - - - b : ' ' ' c d ' e f - - - - - * g h - - - - - - -   ",
"    i - - - - - - j k ' l m - - - - - n ' ' ' o p q r ' s t - - - - u ' v w - - - - - -   ",
"    x - - - - - y z ' ' ' A 7 - - - B ' ' ' ^ C - - [ D ' E F - - G : ' ' ^ H - - - - -   ",
"    5 - - - - I J ' ' ' ' e K - - L M ' ' s N - - - - 9 O ' P - - Q ' ' ' ' R 7 - - - -   ",
"    5 - - - G S ' ' ' ' ' ' T - - U V : W X - - - - - - - Y Z `  ...+.' @.#.' $.- - - -   ",
"    5 - - %.&.' ' ' ' ' *.' =.-.[ ;.>.+.,.- - - - - - - - - '.).!.~.&.{.7 [ ].^./.- - -   ",
"    5 - (.v *.' ' =._.:.<.[.' }.|.1.J 2.5 - - - - - - - - - - 3.4.5.6.- - - 9 7.8.9.- -   ",
"    5 0.a.b.c.d./ e.- - - L f.c.g.h.i.j.- - - - - - - - - - - - j ~ - - - - - - k.l.7 -   ",
"    j.- , m.n.F - - - - - - 9 o.p.q.j.- - - - - - - - - - - - - - - - - - - - - - r.s.-   ",
"      ] t.- - - - - - - - - - - u.v.- - - - - - - - - - - - - - - - - - - - - - - - j w.  "};
