/* XPM */
static char * IceWM_xpm[] = {
"45 18 24 1",
" 	c None",
".	c #334057",
"+	c #FFFFFF",
"@	c #344056",
"#	c #323F56",
"$	c #FBFBFB",
"%	c #FEFEFE",
"&	c #ECEDEF",
"*	c #364258",
"=	c #F8F9F9",
"-	c #333F56",
";	c #354158",
">	c #344158",
",	c #F5F5F6",
"'	c #F6F6F7",
")	c #F4F5F6",
"!	c #FAFAFB",
"~	c #FCFDFD",
"{	c #F9F9FA",
"]	c #F1F2F3",
"^	c #323F55",
"/	c #37445A",
"(	c #354259",
"_	c #334056",
"                                             ",
"   ........................................  ",
"  .....................+.................... ",
"  ....................+++@.................. ",
"  ....................+++................... ",
"  ...................+++++.................. ",
"  ...................++++++................. ",
"  ..................++++++++........#....... ",
"  .........+........$++++++%+......&........ ",
"  ........+++......+++++*.++++.....+=....... ",
"  .......+++++#....++++....++++...$+++...... ",
"  -.....+++++%...;++++.....>+++..++++++#.... ",
"  -....++++++++...,$'........+).+!~+.+++.... ",
"  -...++++++++{..+++..........+.++]...+++... ",
"  -..=+++{+..+++.++.-...........++....>+++.. ",
"  -.+++++....;++...^............/(......++#. ",
"  ^.+++_......>+..^......................... ",
"   ........................................  "};
