/* XPM */
static char * illumos_xpm[] = {
"45 18 4 1",
" 	c None",
".	c #FFAF0F",
"+	c #FF430F",
"@	c #FF730F",
"                                             ",
"               .                             ",
"               ...+                          ",
"                ...+       ++                ",
"                 ...++    ++                 ",
"                   .@+++ ++                  ",
"                    @@+++++                  ",
"                     @@++++                  ",
"                     @@++++                  ",
"                      @++++                  ",
"                       ++++                  ",
"                       +++                   ",
"                      +++                    ",
"                    ++++                     ",
"                   ++++                      ",
"                 +++++                       ",
"                  + +                        ",
"                                             "};
