/* XPM */
static char * Kali_xpm[] = {
"45 18 2 1",
" 	c None",
".	c #1C1C1C",
"                                             ",
"                                             ",
"              ...                            ",
"                 ....                        ",
"                    ..                       ",
"              ........                       ",
"                  .  ......                  ",
"               ...  ..   ...                 ",
"              ..    .      ..                ",
"                    .                        ",
"                    ..                       ",
"                      ......                 ",
"                           ...               ",
"                           . .               ",
"                                             ",
"                                             ",
"                                             ",
"                                             "};
