/* XPM */
static char * kaos_xpm[] = {
"45 18 11 1",
" 	c None",
".	c #124364",
"+	c #0155AF",
"@	c #0766B2",
"#	c #0764AE",
"$	c #134364",
"%	c #124366",
"&	c #114568",
"*	c #3EB9FF",
"=	c #124465",
"-	c #124365",
"                                             ",
"                                             ",
"                .... ......                  ",
"               ..+....@@@@.                  ",
"               .++...@@@@@.                  ",
"               .++..@@@#..$                  ",
"               .++.%@@@..                    ",
"               .++.@@...                     ",
"               .++.@&....                    ",
"               .++.@****...                  ",
"               ..++*******=..                ",
"                ..+**...****.                ",
"                ..........-*.                ",
"                 ....     ...                ",
"                  ..                         ",
"                                             ",
"                                             ",
"                                             "};
