/* XPM */
static char * knoppix_xpm[] = {
"45 18 7 1",
" 	c None",
".	c #8B8D8A",
"+	c #FFFFFF",
"@	c #5E5E5E",
"#	c #EAB108",
"$	c #FDFDFD",
"%	c #EA8C08",
"                                             ",
"                    ....                     ",
"                   ......                    ",
"                   .+..+.                    ",
"               @@  .+..+.  @@                ",
"                @@ ...... @@                 ",
"                 @@..##..@@                  ",
"               .....####.....                ",
"                ....+##+....                 ",
"                 ...++++..                   ",
"                 ..$++++$..                  ",
"                 ..++++++..                  ",
"                 ..++++++..                  ",
"                 %.++++++.%                  ",
"                %%..++++..%%                 ",
"               %%##......##%%                ",
"                 ####  ####                  ",
"                                             "};
