/* XPM */
static char * lite_xpm[] = {
"45 18 3 1",
" 	c None",
".	c #FFC107",
"+	c #F6F6F6",
"                                             ",
"                     ...                     ",
"                    .....                    ",
"                   .......                   ",
"                   .......                   ",
"                  ....+...                   ",
"                  ...+...                    ",
"                  ...+...                    ",
"                  ...+..                     ",
"                  ...+..                     ",
"                  ...+..                     ",
"                  ...+...                    ",
"                  ...+...                    ",
"                   ...+..                    ",
"                   ...+..                    ",
"                     ..+                     ",
"                        +                    ",
"                                             "};
