/* XPM */
static char * lxde_xpm[] = {
"45 18 3 1",
" 	c None",
".	c #0068C8",
"+	c #FFFFFF",
"                                             ",
"                   ......                    ",
"                 ..........                  ",
"                ............                 ",
"               ......++......                ",
"               ....++++......                ",
"              ...+++++++......               ",
"              ..++++++++......               ",
"              .++++++..++.....               ",
"              ++.+++....+.....               ",
"              ...+++....+.....               ",
"              ..+.+......+....               ",
"               +.+.......+...                ",
"               .+........+...                ",
"                ..........+.                 ",
"                 .........+                  ",
"                   ......                    ",
"                                             "};
