/* XPM */
static char * lxle_xpm[] = {
"45 18 3 1",
" 	c None",
".	c #4F4F4F",
"+	c #FFFFFF",
"                                             ",
"              ................               ",
"              .++..++......++.               ",
"              .++..+++....+++.               ",
"              .++.....++++....               ",
"              .++.....++++....               ",
"              .++..+++....+++.               ",
"              .++..++......++.               ",
"              .++.............               ",
"              .++...++++++++..               ",
"              .++..++++++++++.               ",
"              .++..++....+++..               ",
"              .++..++...+++...               ",
"              .++..++.........               ",
"              .++..++++++++++.               ",
"              .++...+++++++++.               ",
"              ................               ",
"                                             "};
