/* XPM */
static char * lxqt_xpm[] = {
"45 18 9 1",
" 	c None",
".	c #E4E4E4",
"+	c #E2E3E4",
"@	c #4A4A4A",
"#	c #0A95D4",
"$	c #E0E2E3",
"%	c #DBE1E3",
"&	c #DCE1E3",
"*	c #DFE2E4",
"                                             ",
"                   ......                    ",
"                 ..........                  ",
"                ............                 ",
"               ..+...@@@.....                ",
"               ..##..@..@@...                ",
"              ...###$@........               ",
"              ...#......#.....               ",
"              ...##...+.#%....               ",
"              ...##.....##....               ",
"              ...&##.....#....               ",
"              ...........#....               ",
"               .........##...                ",
"               ......####+...                ",
"                .....#......                 ",
"                 ....*.....                  ",
"                   ......                    ",
"                                             "};
