/* XPM */
static char * macos_xpm[] = {
"45 18 4 1",
" 	c None",
".	c #1DA0F8",
"+	c #E4E4E4",
"@	c #4C4C4C",
"                                             ",
"                ......++++++                 ",
"               .......+++++++                ",
"              .......+++++++++               ",
"              ......++++++++++               ",
"              ...@@.+++++@@+++               ",
"              ...@@.+++++@@+++               ",
"              ......++++++++++               ",
"              ......++++++++++               ",
"              .......+++++++++               ",
"              .......+++++++++               ",
"              ...@@..++++@@+++               ",
"              ....@@@@@@@@++++               ",
"              ......@@@@++++++               ",
"              ........++++++++               ",
"               ........++++++                ",
"                ........++++                 ",
"                                             "};
