/* XPM */
static char * mageia_xpm[] = {
"45 18 3 1",
" 	c None",
".	c #54D2F4",
"+	c #323F5A",
"                                             ",
"                  ..                         ",
"                  ..    ..                   ",
"                     .. ..                   ",
"                     ..                      ",
"                  ..                         ",
"                  ..  ..                     ",
"              +++     ..  ++++               ",
"              +++++      +++++               ",
"              ++++++++++++++++               ",
"              +++ ++++++++ +++               ",
"              +++  ++++++  +++               ",
"              +++          +++               ",
"              +++          +++               ",
"               +++        +++                ",
"                ++++++++++++                 ",
"                 ++++++++++                  ",
"                                             "};
