/* XPM */
static char * manjaro_xpm[] = {
"45 18 2 1",
" 	c None",
".	c #35BF5C",
"                                             ",
"                                             ",
"               ......... ....                ",
"               ......... ....                ",
"               ......... ....                ",
"               ......... ....                ",
"               ....      ....                ",
"               .... .... ....                ",
"               .... .... ....                ",
"               .... .... ....                ",
"               .... .... ....                ",
"               .... .... ....                ",
"               .... .... ....                ",
"               .... .... ....                ",
"               .... .... ....                ",
"               .... .... ....                ",
"               .... .... ....                ",
"                                             "};
