/* XPM */
static char * mate_xpm[] = {
"45 18 7 1",
" 	c None",
".	c #809C51",
"+	c #FFFFFF",
"@	c #F7F8F4",
"#	c #F3F5EF",
"$	c #EDF1E8",
"%	c #829F52",
"                                             ",
"                   ......                    ",
"                 ....+++...                  ",
"                ...+@...++..                 ",
"               ...#.......+..                ",
"               .+...+++++..+.                ",
"              ..++......++.++.               ",
"              ..++++.....+..+.               ",
"              ..++++++...+..+.               ",
"              ..+++++....+..+.               ",
"              ..+++.....++.++.               ",
"              ..+...$...+..+..               ",
"               ...+..+++..++.                ",
"               ...++.....++%.                ",
"                ...++...++..                 ",
"                  ...+++...                  ",
"                   ......                    ",
"                                             "};
