/* XPM */
static char * mint_xpm[] = {
"45 18 4 1",
" 	c None",
".	c #FFFFFF",
"+	c #87CF3E",
"@	c #CAE4B2",
"                                             ",
"                                             ",
"               ............                  ",
"               .++++++++++..                 ",
"               .+++.+++++++..                ",
"               ...+.++++++++.                ",
"                 .+.++.....+.                ",
"                 .+.++.+.+.+.                ",
"                 .+.++.+.+.+.                ",
"                 .+.++.+.+.+.                ",
"                 .+.++.+.+@+.                ",
"                 .+..+++++@+.                ",
"                 .++..@@@@@+.                ",
"                 ..+++++++++.                ",
"                  ...+++++++.                ",
"                    .........                ",
"                                             ",
"                                             "};
