/* XPM */
static char * mx_xpm[] = {
"45 18 6 1",
" 	c None",
".	c #4F4F4F",
"+	c #FFFFFF",
"@	c #505050",
"#	c #FAFAFA",
"$	c #FDFDFD",
"                                             ",
"               ..............                ",
"              ................               ",
"              ................               ",
"              ...++......++...               ",
"              ...+++....+++...               ",
"              ....+++..+++@...               ",
"              .....++++++.....               ",
"              ......+#$+......               ",
"              ......++++......               ",
"              .....+++.++.....               ",
"              ....++++.+++....               ",
"              ...++++++.+++...               ",
"              ..++++++++++++..               ",
"              .++++++++++++++.               ",
"              ................               ",
"               ..............                ",
"                                             "};
