/* XPM */
static char * neon_xpm[] = {
"45 18 3 1",
" 	c None",
".	c #0079C1",
"+	c #FFFFFF",
"                                             ",
"                 ..........                  ",
"                ...++++++...                 ",
"               ..++......++..                ",
"              ..+...++++...+..               ",
"              ..+.++....++.+..               ",
"              .+..+......+..+.               ",
"              .+.+...++...+.+.               ",
"              .+.+..++++..+.+.               ",
"              .+.+..++++..+.+.               ",
"              .+.+...++...+.+.               ",
"              .+..+......+..+.               ",
"              ..+.++....++.+..               ",
"              ..+...++++...+..               ",
"               ..++......++..                ",
"                ...++++++...                 ",
"                 ..........                  ",
"                                             "};
