/* XPM */
static char * netbsd_xpm[] = {
"45 18 3 1",
" 	c None",
".	c #FF6300",
"+	c #6A6A6A",
"                                             ",
"                      ........               ",
"                    ...                      ",
"              +....... .......               ",
"              ++.........                    ",
"              ++.........                    ",
"               +......                       ",
"               ++....                        ",
"                +..                          ",
"                +..                          ",
"                ++                           ",
"                 ++                          ",
"                 ++                          ",
"                 ++                          ",
"                 ++                          ",
"                  ++                         ",
"                  ++                         ",
"                                             "};
