/* XPM */
static char * openindiana_xpm[] = {
"45 18 3 1",
" 	c None",
".	c #4667A9",
"+	c #59595B",
"                                             ",
"                                             ",
"                                             ",
"                 .....   ++                  ",
"                .......  ++                  ",
"                ..   ..  ++                  ",
"                ..   ..  ++                  ",
"                ..   ..  ++                  ",
"                ..   ..  ++  +               ",
"                ..   ..  ++  +               ",
"              + .......  ++  +               ",
"              +  .....   ++ ++               ",
"              ++            ++               ",
"              ++++++      ++++               ",
"               ++++++++++++++                ",
"                   ++++++++                  ",
"                                             ",
"                                             "};
