/* XPM */
static char * openbsd_xpm[] = {
"45 18 7 1",
" 	c None",
".	c #000000",
"+	c #E2BF5B",
"@	c #FFF466",
"#	c #EBEBEB",
"$	c #FFF57B",
"%	c #DEBB59",
"                                             ",
"                                             ",
"                     .  .                    ",
"                  . ...... .                 ",
"                  ..++++++..                 ",
"                ..+++++++++..                ",
"                 .++++++++.                  ",
"                 .+++++++.@.                 ",
"              . .+++++++++#...               ",
"               .+++++++++++@+.               ",
"               .++++.++++++$+.               ",
"               .+.++.++++++%.                ",
"              . . .++++++++.                 ",
"                  ..++++++...                ",
"                  . ..++..                   ",
"                    . .. .                   ",
"                                             ",
"                                             "};
