/* XPM */
static char * opensuse_xpm[] = {
"45 18 3 1",
" 	c None",
".	c #6EAA36",
"+	c #FFFFFF",
"                                             ",
"                   ......                    ",
"                 ..........                  ",
"                ...++++++...                 ",
"               ..++..++++++..                ",
"               ..........++..                ",
"              .........+..++..               ",
"              ........+.+..+..               ",
"              ........+..+.+..               ",
"              ......+..++..+..               ",
"              .......+....++..               ",
"              ........+++..+..               ",
"               ...........+..                ",
"               ..++++++++++..                ",
"                ...++++++...                 ",
"                 ..........                  ",
"                   ......                    ",
"                                             "};
