/* XPM */
static char * peppermint_xpm[] = {
"45 18 3 1",
" 	c None",
".	c #AB0B0E",
"+	c #FEFEFE",
"                                             ",
"                   ......                    ",
"                 ......++..                  ",
"                ..++...+++..                 ",
"               ..+++..+++....                ",
"               ...++..++.....                ",
"              .....++.+.......               ",
"              .....++++++++++.               ",
"              .+++..+++++++++.               ",
"              .++++++++...+++.               ",
"              ......+.++....+.               ",
"              .....++..++.....               ",
"               ...+++..++....                ",
"               ..+++...+++...                ",
"                .+++...+++..                 ",
"                .......++..                  ",
"                   .......                   ",
"                                             "};
