/* XPM */
static char * plasma_xpm[] = {
"45 18 6 1",
" 	c None",
".	c #1AB5BC",
"+	c #9F327B",
"@	c #FFFFFF",
"#	c #DF5B6F",
"$	c #445C5C",
"                                             ",
"                   ......                    ",
"                 ..........                  ",
"                ..........++                 ",
"               .....@.@@@++++                ",
"               ........@@@++#                ",
"              .........+@@@###               ",
"              ....@@..$++@@@##               ",
"              ....@@.$$++#@@@#               ",
"              ......$$$+#@@@##               ",
"              .....$$$$#@@@###               ",
"              ....@@@$$@@@####               ",
"               ..$@@@$@@@####                ",
"               .$$@@@$@@$$###                ",
"                $$$$$$$$$$$#                 ",
"                 $$$$$$$$$$                  ",
"                   $$$$$$                    ",
"                                             "};
