/* XPM */
static char * pop_xpm[] = {
"45 18 3 1",
" 	c None",
".	c #48B9C7",
"+	c #FFFFFF",
"                                             ",
"                   ......                    ",
"                 ..........                  ",
"                ..++++......                 ",
"               ..++.+++..++..                ",
"               ..++..++..++..                ",
"              ....++.++..++...               ",
"              ....++++...+....               ",
"              .....++....+....               ",
"              .....++....+....               ",
"              ......++........               ",
"              .......+...+....               ",
"               ..............                ",
"               ...++++++++...                ",
"                ............                 ",
"                 ..........                  ",
"                   ......                    ",
"                                             "};
