/* XPM */
static char * redhat_xpm[] = {
"45 18 3 1",
" 	c None",
".	c #E73232",
"+	c #3F3F3F",
"                                             ",
"                                             ",
"                                             ",
"                   ......                    ",
"                  ........                   ",
"                  .........                  ",
"                  .........                  ",
"               ..+.........                  ",
"              ...+++.......                  ",
"              ....++++....++.                ",
"               .....+++++++...               ",
"                ..............               ",
"                 .............               ",
"                   ..........                ",
"                       ....                  ",
"                                             ",
"                                             ",
"                                             "};
