/* XPM */
static char * solus_xpm[] = {
"45 18 4 1",
" 	c None",
".	c #4C5263",
"+	c #FFFFFF",
"@	c #5294E2",
"                                             ",
"                   ......                    ",
"                 ..........                  ",
"                ...+........                 ",
"               ...+++........                ",
"               ...+++........                ",
"              ....++++........               ",
"              ...+++++.+......               ",
"              ...+++++.++.++..               ",
"              ..++++++.++.+++.               ",
"              .+++++++.++..++.               ",
"              .+++++++.+++....               ",
"              ......++.+++...                ",
"               ............@@                ",
"                @@@@@@@@@@@@                 ",
"                 @@@@@@@@@@                  ",
"                   @@@@@@                    ",
"                                             "};
