/* XPM */
static char * ubuntu_budgie_xpm[] = {
"45 18 3 1",
" 	c None",
".	c #404552",
"+	c #FFFFFF",
"                                             ",
"                   ......                    ",
"                 ..........                  ",
"                .......+++..                 ",
"               ..+++..+++++..                ",
"               .+++..+++++++.                ",
"              .++++...++++++..               ",
"              .+++++....++++..               ",
"              .+++++..........               ",
"              .+++++..........               ",
"              ..++++..........               ",
"              ...++....+++....               ",
"               .......+++++..                ",
"               .....+.+++++..                ",
"                .....+++++..                 ",
"                 .....+++..                  ",
"                   ......                    ",
"                                             "};
