/* XPM */
static char * ubuntu_studio_xpm[] = {
"45 18 3 1",
" 	c None",
".	c #0094F0",
"+	c #FFFFFF",
"                                             ",
"                   ......                    ",
"                 ......+...                  ",
"                ........++..                 ",
"               ...........+..                ",
"               .....++++.....                ",
"              .....+....+.....               ",
"              ..+....++..+....               ",
"              ..+.+.+..+.+....               ",
"              ..+.+.+..+.+....               ",
"              ..+....++..+....               ",
"              .....+....+.....               ",
"               .....++++.....                ",
"               ...........+..                ",
"                ........++..                 ",
"                 ......+...                  ",
"                   ......                    ",
"                                             "};
