/* XPM */
static char * ubuntu_xpm[] = {
"45 18 3 1",
" 	c None",
".	c #F56E2C",
"+	c #FFFFFF",
"                                             ",
"                   ......                    ",
"                 ..........                  ",
"                ............                 ",
"               ..........++..                ",
"               .....++++.++..                ",
"              .....++.........               ",
"              ....++.....++...               ",
"              ............+...               ",
"              ..++........+...               ",
"              ..++........+...               ",
"              .....+.....++...               ",
"               ....++........                ",
"               .....+++.++...                ",
"                ........++..                 ",
"                 ..........                  ",
"                   ......                    ",
"                                             "};
