/* XPM */
static char * void_xpm[] = {
"45 18 4 1",
" 	c None",
".	c #4F4F4F",
"+	c #91CD91",
"@	c #33855A",
"                                             ",
"                   ......                    ",
"                 ..........                  ",
"                ....++++....                 ",
"               ....+++++++...                ",
"               .........+++..                ",
"              ...@.......++...               ",
"              ..@@...++...++..               ",
"              ..@@..++++..++..               ",
"              ..@@..++++..++..               ",
"              ..@@...++...++..               ",
"              ...@@.......+...               ",
"               ..@@@.........                ",
"               ...@@@@@@@....                ",
"                ....@@@@....                 ",
"                 ..........                  ",
"                   ......                    ",
"                                             "};
