/* XPM */
static char * voyager_xpm[] = {
"45 18 3 1",
" 	c None",
".	c #F6531C",
"+	c #FFFFFF",
"                                             ",
"               ......++......                ",
"              .......++.......               ",
"              .......++.......               ",
"              .......++.......               ",
"              .......++.......               ",
"              .......++.......               ",
"              .......++.......               ",
"              .......++.......               ",
"              .......++.......               ",
"              .......++.......               ",
"              .......+++++++++               ",
"              ................               ",
"              ................               ",
"              ................               ",
"              ................               ",
"               ..............                ",
"                                             "};
