/* XPM */
static char * windows_95_xpm[] = {
"45 18 11 1",
" 	c None",
".	c #201E1F",
"+	c #221E1D",
"@	c #D95936",
"#	c #1F9342",
"$	c #D35A3B",
"%	c #2D7CB4",
"&	c #F6C310",
"*	c #1F1F1F",
"=	c #252324",
"-	c #222021",
"                                             ",
"                        .......              ",
"                      ...........            ",
"                 . ....+@@.####..            ",
"              @ @ .  @@@@@.####..            ",
"           @ @ @ . .@@@@@@.####..            ",
"          @ @ @ @ . $@@@@@.####..            ",
"           @ @ @ . .@@@@@@.####..            ",
"          @ @ @ @ . @............            ",
"           @ @   . .....%%.&&&&..            ",
"                  . ..%%%%.&&&&..            ",
"               % . . .%%%%.&&&&..            ",
"            % % % . %%%%%%.&&&&..            ",
"             % % . . %%%%%.&&&&..            ",
"            % % % . %%%%......*..            ",
"             % % . .=............            ",
"            % %   . ...-                     ",
"                                             "};
