/* XPM */
static char * windows_xpm[] = {
"45 18 2 1",
" 	c None",
".	c #FFFFFF",
"                                             ",
"                                             ",
"                     .........               ",
"              ...... .........               ",
"              ...... .........               ",
"              ...... .........               ",
"              ...... .........               ",
"              ...... .........               ",
"              ...... .........               ",
"                                             ",
"              ...... .........               ",
"              ...... .........               ",
"              ...... .........               ",
"              ...... .........               ",
"              ...... .........               ",
"                     .........               ",
"                                             ",
"                                             "};
