/* XPM */
static char * xfce_xpm[] = {
"45 18 3 1",
" 	c None",
".	c #0044AA",
"+	c #FFFFFF",
"                                             ",
"                   ......                    ",
"                 ..........                  ",
"                ............                 ",
"               .........+....                ",
"               .....+..+..+..                ",
"              ...++.+....+....               ",
"              ....++++........               ",
"              ....+++++++.....               ",
"              ...++++++++++...               ",
"              ...++++++++++...               ",
"              ...+++++++++....               ",
"               ..+++++++.....                ",
"               ...++++.......                ",
"                ............                 ",
"                 ..........                  ",
"                   ......                    ",
"                                             "};
