/* XPM */
static char * zorin_xpm[] = {
"45 18 3 1",
" 	c None",
".	c #17B5F9",
"+	c #FFFFFF",
"                                             ",
"                                             ",
"                  ........                   ",
"                 ..........                  ",
"                ++++++++++++                 ",
"                ++++++++++++                 ",
"               .........+++++                ",
"               .......+++++..                ",
"              .......+++++....               ",
"              .....+++++......               ",
"               ..+++++.......                ",
"               .++++.........                ",
"                ++++++++++++                 ",
"                ++++++++++++                 ",
"                 ..........                  ",
"                  ........                   ",
"                                             ",
"                                             "};
